<svg width="64" height="48" viewBox="0 0 64 48" fill="none" xmlns="http://www.w3.org/2000/svg">
<path d="M57.2348 0H5.92084C2.65081 0 0 2.65081 0 5.92084V41.4459C0 44.7159 2.65081 47.3667 5.92084 47.3667H57.2348C60.5049 47.3667 63.1557 44.7159 63.1557 41.4459V5.92084C63.1557 2.65081 60.5049 0 57.2348 0ZM57.2348 5.92084V10.9542C54.469 13.2064 50.0597 16.7086 40.6334 24.0898C38.556 25.7238 34.4411 29.6495 31.5778 29.6037C28.7151 29.65 24.5988 25.7232 22.5223 24.0898C13.0974 16.7097 8.68699 13.2068 5.92084 10.9542V5.92084H57.2348ZM5.92084 41.4459V18.5517C8.74731 20.803 12.7556 23.9621 18.865 28.7462C21.5611 30.8684 26.2826 35.5534 31.5778 35.5249C36.847 35.5534 41.5087 30.9364 44.2895 28.7472C50.3988 23.9633 54.4082 20.8033 57.2348 18.5519V41.4459H5.92084Z" fill="#18181B"/>
</svg>
