<svg width="64" height="64" viewBox="0 0 64 64" fill="none" xmlns="http://www.w3.org/2000/svg">
<path d="M31.5849 15.3821C22.624 15.3821 15.3962 22.6099 15.3962 31.5708C15.3962 40.5316 22.624 47.7595 31.5849 47.7595C40.5457 47.7595 47.7736 40.5316 47.7736 31.5708C47.7736 22.6099 40.5457 15.3821 31.5849 15.3821ZM31.5849 42.0956C25.7941 42.0956 21.0601 37.3756 21.0601 31.5708C21.0601 25.766 25.78 21.046 31.5849 21.046C37.3897 21.046 42.1096 25.766 42.1096 31.5708C42.1096 37.3756 37.3756 42.0956 31.5849 42.0956ZM52.2117 14.7199C52.2117 16.8192 50.521 18.4958 48.4358 18.4958C46.3365 18.4958 44.6598 16.8051 44.6598 14.7199C44.6598 12.6347 46.3506 10.9439 48.4358 10.9439C50.521 10.9439 52.2117 12.6347 52.2117 14.7199ZM62.9338 18.5522C62.6942 13.4941 61.5389 9.01368 57.8334 5.32226C54.142 1.63085 49.6616 0.475517 44.6035 0.221908C39.3904 -0.0739693 23.7653 -0.0739693 18.5522 0.221908C13.5082 0.461427 9.02777 1.61676 5.32226 5.30818C1.61676 8.99959 0.475517 13.48 0.221908 18.5381C-0.0739693 23.7512 -0.0739693 39.3763 0.221908 44.5894C0.461427 49.6475 1.61676 54.1279 5.32226 57.8193C9.02777 61.5107 13.4941 62.6661 18.5522 62.9197C23.7653 63.2155 39.3904 63.2155 44.6035 62.9197C49.6616 62.6801 54.142 61.5248 57.8334 57.8193C61.5248 54.1279 62.6801 49.6475 62.9338 44.5894C63.2296 39.3763 63.2296 23.7653 62.9338 18.5522ZM56.199 50.1829C55.1001 52.9444 52.9726 55.0719 50.197 56.1849C46.0406 57.8334 36.178 57.453 31.5849 57.453C26.9917 57.453 17.1151 57.8193 12.9728 56.1849C10.2113 55.086 8.08378 52.9585 6.97072 50.1829C5.32226 46.0265 5.70268 36.1639 5.70268 31.5708C5.70268 26.9776 5.33635 17.101 6.97072 12.9587C8.06969 10.1972 10.1972 8.06969 12.9728 6.95663C17.1292 5.30817 26.9917 5.68859 31.5849 5.68859C36.178 5.68859 46.0547 5.32226 50.197 6.95663C52.9585 8.0556 55.086 10.1831 56.199 12.9587C57.8475 17.1151 57.4671 26.9776 57.4671 31.5708C57.4671 36.1639 57.8475 46.0406 56.199 50.1829Z" fill="#18181B"/>
</svg>
