<svg width="64" height="64" viewBox="0 0 64 64" fill="none" xmlns="http://www.w3.org/2000/svg">
<path d="M53.6964 9.17731C47.7897 3.25646 39.9234 0 31.5637 0C14.3087 0 0.267848 14.0409 0.267848 31.2959C0.267848 36.8079 1.70577 42.1931 4.44063 46.9438L0 63.1557L16.5925 58.7996C21.16 61.2948 26.3055 62.6059 31.5496 62.6059H31.5637C48.8047 62.6059 63.1557 48.565 63.1557 31.31C63.1557 22.9503 59.6032 15.0982 53.6964 9.17731ZM31.5637 57.3335C26.8834 57.3335 22.3018 56.0788 18.3123 53.7105L17.3678 53.1466L7.52793 55.7264L10.15 46.1262L9.52974 45.1394C6.92175 40.9948 5.55432 36.2158 5.55432 31.2959C5.55432 16.959 17.2268 5.28647 31.5778 5.28647C38.5278 5.28647 45.0548 7.99314 49.9606 12.9131C54.8665 17.833 57.8833 24.36 57.8692 31.31C57.8692 45.661 45.9006 57.3335 31.5637 57.3335ZM45.8301 37.8511C45.0548 37.4564 41.2063 35.5674 40.4873 35.3136C39.7683 35.0458 39.2467 34.9189 38.7251 35.7083C38.2035 36.4978 36.7092 38.2458 36.244 38.7815C35.7929 39.3031 35.3277 39.3736 34.5524 38.9789C29.9566 36.681 26.9398 34.8766 23.9089 29.6747C23.1054 28.2932 24.7125 28.3919 26.2068 25.4032C26.4605 24.8816 26.3337 24.4305 26.1363 24.0358C25.9389 23.6411 24.3741 19.7925 23.7257 18.2277C23.0913 16.7052 22.4428 16.9167 21.9635 16.8885C21.5124 16.8603 20.9908 16.8603 20.4692 16.8603C19.9476 16.8603 19.1018 17.0577 18.3828 17.833C17.6638 18.6225 15.6479 20.5115 15.6479 24.36C15.6479 28.2086 18.4533 31.9303 18.8339 32.4519C19.2286 32.9735 24.3459 40.8679 32.1981 44.2654C37.1603 46.4081 39.1058 46.5914 41.5869 46.2249C43.0953 45.9993 46.2108 44.3358 46.8592 42.5032C47.5077 40.6706 47.5077 39.1058 47.3104 38.7815C47.1271 38.4291 46.6055 38.2317 45.8301 37.8511Z" fill="#18181B"/>
</svg>
