<svg width="64" height="45" viewBox="0 0 64 45" fill="none" xmlns="http://www.w3.org/2000/svg">
<path d="M61.836 6.94808C61.1096 4.21316 58.9696 2.05923 56.2523 1.32826C51.3272 0 31.5778 0 31.5778 0C31.5778 0 11.8286 0 6.90332 1.32826C4.1861 2.05934 2.04604 4.21316 1.3197 6.94808C0 11.9053 0 22.248 0 22.248C0 22.248 0 32.5907 1.3197 37.5479C2.04604 40.2828 4.1861 42.347 6.90332 43.078C11.8286 44.4063 31.5778 44.4063 31.5778 44.4063C31.5778 44.4063 51.3271 44.4063 56.2523 43.078C58.9696 42.347 61.1096 40.2828 61.836 37.5479C63.1557 32.5907 63.1557 22.248 63.1557 22.248C63.1557 22.248 63.1557 11.9053 61.836 6.94808ZM25.1187 31.6384V12.8576L41.6252 22.2482L25.1187 31.6384Z" fill="#18181B"/>
</svg>
